<?xml version="1.0" encoding="UTF-8" standalone="no"?>
<svg
   version="1.1"
   id="Contours"
   x="0px"
   y="0px"
   width="2500"
   height="1500"
   viewBox="0 0 2500 951.66156"
   enable-background="new 0 0 1795.281006 1795.281006"
   xml:space="preserve"
   stroke="#000000"
   fill="none"
   stroke-linecap="round"
   stroke-linejoin="round"
   sodipodi:docname="genya-red-black.svg"
   inkscape:version="1.3.1 (9b9bdc1480, 2023-11-25, custom)"
   xmlns:inkscape="http://www.inkscape.org/namespaces/inkscape"
   xmlns:sodipodi="http://sodipodi.sourceforge.net/DTD/sodipodi-0.dtd"
   xmlns="http://www.w3.org/2000/svg"
   xmlns:svg="http://www.w3.org/2000/svg"><defs
     id="defs9" /><sodipodi:namedview
     id="namedview9"
     pagecolor="#505050"
     bordercolor="#eeeeee"
     borderopacity="1"
     inkscape:showpageshadow="0"
     inkscape:pageopacity="0"
     inkscape:pagecheckerboard="0"
     inkscape:deskcolor="#d1d1d1"
     inkscape:zoom="0.22770199"
     inkscape:cx="606.05531"
     inkscape:cy="1359.2327"
     inkscape:window-width="1854"
     inkscape:window-height="1011"
     inkscape:window-x="0"
     inkscape:window-y="0"
     inkscape:window-maximized="1"
     inkscape:current-layer="Contours" /><g
     inkscape:groupmode="layer"
     id="layer1"
     inkscape:label="bg"><rect
       style="fill:#1f1f1f;fill-opacity:1;stroke:#000000;stroke-width:8;paint-order:stroke markers fill"
       id="rect807"
       width="2815.2031"
       height="2835.9436"
       x="-125.57532"
       y="-592.78278" /></g><g
     inkscape:groupmode="layer"
     id="layer2"
     inkscape:label="purp"><rect
       style="fill:#912aff;fill-opacity:1;stroke:#000000;stroke-width:8;paint-order:stroke markers fill"
       id="rect808"
       width="1317.8889"
       height="355.02475"
       x="-1773.6484"
       y="1495.8848" /></g><path
     class="selected"
     fill="#000000"
     opacity="1"
     stroke="none"
     d="m 1986.0265,-93.22656 c 1.8475,0.33332 3.4448,0.95608 5.0427,0.95788 46.1648,0.0521 92.33,0.1101 138.4942,-0.0638 4.5815,-0.0173 5.822,1.1111 5.8191,5.7715 -0.1237,193.15904 -0.121,386.3182 -0.059,579.47732 0,9.05737 -5.0573,14.91205 -15.0823,14.91004 -320.4875,-0.0643 -640.9751,-0.17707 -961.4625,-0.0114 -230.68638,0.11933 -461.37257,0.62604 -692.05885,0.95593 -13.38997,0.0192 -26.78075,0.0792 -40.16942,-0.0544 -3.1418,-0.0314 -4.31926,0.81391 -4.34091,4.16144 -0.22441,34.69458 -0.65465,69.38782 -0.91013,104.08234 -0.1305,17.72217 0.10708,35.44732 -0.0603,53.16888 -0.1593,16.86292 -0.65586,33.72243 -0.94741,50.58443 -0.096,5.5553 0.0345,11.1142 -0.0234,16.6706 -0.316,30.3609 -0.59224,60.7226 -1.06152,91.0812 -0.0722,4.6721 1.4746,6.3654 6.22637,6.3957 15.69615,0.1005 31.39007,0.5693 47.08444,0.9151 14.52831,0.3201 29.05463,0.8174 43.58451,0.9576 17.38821,0.1678 34.78041,0.1592 52.16873,0 11.19696,-0.1047 22.39303,-0.5471 33.58378,-0.9847 7.22904,-0.2825 8.36304,-1.7001 8.43207,-9.1011 0.31009,-33.2514 0.63083,-66.5027 1.02918,-99.753 0.0403,-3.3654 0.58322,-6.7292 0.97387,-10.0844 0.34513,-2.9636 -0.80041,-4.0464 -3.85809,-4.0973 -9.69775,-0.1616 -19.38858,-0.7121 -29.0862,-0.9139 -19.6929,-0.4097 -39.38958,-0.6372 -59.08255,-1.0445 -10.19738,-0.2107 -20.39007,-0.6477 -30.58516,-0.974 -0.99893,-0.032 -2.01741,-0.1264 -2.99697,0.015 -8.57329,1.2367 -10.13421,-0.5415 -9.49335,-9.34533 0.45859,-6.29969 -0.24658,-12.68152 0.1624,-18.98804 0.74159,-11.43543 1.8222,-22.85279 2.99092,-34.25409 0.34727,-3.38782 3.16682,-3.46991 5.97488,-3.46552 33.33196,0.0524 66.66463,-0.0904 99.99584,0.0754 24.02873,0.11951 48.05528,0.64496 72.08333,0.94556 6.72253,0.0841 13.44879,0.10211 20.16973,-0.0303 2.76114,-0.0544 4.03312,0.90687 3.71708,3.71088 -0.0371,0.32916 -0.007,0.66614 -0.005,0.99945 0.33307,52.69319 0.67209,105.38639 0.99335,158.07969 0.0461,7.5566 -0.0726,15.1147 0.021,22.6704 0.29352,23.6948 0.58645,47.3902 1.05807,71.0817 0.0685,3.4413 -0.41452,4.6117 -4.36532,4.625 -37.02787,0.1243 -74.05417,0.6442 -111.08205,0.8439 -29.55517,0.1593 -59.11261,-0.094 -88.66769,0.073 -22.86218,0.1292 -45.7215,0.7066 -68.5836,0.9309 -15.22179,0.1494 -30.44666,-0.033 -45.66916,0.074 -3.53061,0.025 -7.06447,0.5593 -10.58357,0.9724 -3.34212,0.3922 -4.52834,-1.1199 -4.13324,-4.2786 0.0821,-0.6563 0.0119,-1.3318 0.0119,-1.9984 0,-151.4941 0,-302.9883 -10e-6,-454.48238 0,-7.97241 2.88077,-10.36975 10.76773,-9.00024 1.72249,0.29913 3.46248,0.71087 5.1945,0.71124 141.99447,0.033 283.98906,-0.0997 425.98336,0.0666 144.68979,0.16943 289.37926,0.87634 434.06886,0.89075 130.1903,0.0129 260.3804,-0.86835 390.5706,-0.85407 146.3562,0.0161 292.7125,0.59455 439.0687,0.92499 7.3463,0.0166 7.2626,9.2e-4 7.3622,-7.02948 0.2885,-20.36178 0.6128,-40.72324 0.9973,-61.0834 0.265,-14.02933 0.8016,-28.05469 0.9582,-42.08469 0.4175,-37.41672 0.6916,-74.83502 1.0297,-112.25262 0.3285,-36.36054 0.7439,-72.72052 0.9709,-109.08169 0.1481,-23.72201 0.1474,-47.4465 -0.015,-71.16831 -0.104,-15.19623 -0.5692,-30.39111 -0.9877,-45.58343 -0.1385,-5.03376 -0.8082,-10.05484 -0.8897,-15.08732 -0.036,-2.21058 -0.5878,-2.70977 -2.7447,-2.67645 -22.8845,0.3536 -45.7701,0.69278 -68.6566,0.8198 -8.1686,0.0453 -16.3386,-0.63166 -24.5111,-0.73675 -10.6644,-0.13716 -21.3327,-0.11944 -31.998,-0.0172 -29.8611,0.28628 -59.721,0.79362 -89.5827,0.94524 -33.055,0.16786 -66.1122,-0.0916 -99.1672,0.0757 -31.695,0.16043 -63.3883,0.63288 -95.0823,0.95774 -3.5566,0.0365 -7.1142,-0.0153 -10.6711,0.008 -50.36,0.32887 -100.7199,0.66481 -151.0799,0.99421 -3.2236,0.0211 -6.4476,-0.0152 -9.6712,0.005 -51.5266,0.32954 -103.0531,0.66511 -154.5797,0.99465 -3.2236,0.0206 -6.4476,-0.0153 -9.6712,0.005 -51.3599,0.32951 -102.7199,0.66746 -154.0799,0.99241 -5.7233,0.0362 -11.4473,-0.0308 -17.1707,0.0105 -44.6936,0.3231 -89.3871,0.6625 -134.0806,0.99124 -3.2236,0.0237 -6.4476,-0.0166 -9.6711,0.006 -46.69347,0.32899 -93.38695,0.66535 -140.08037,0.99374 -3.55689,0.025 -7.11414,-0.0135 -10.67115,0.006 -60.6929,0.32985 -121.38577,0.66507 -182.07867,0.99512 -3.39029,0.0184 -6.78091,-0.0179 -10.17111,0.005 -47.69342,0.32882 -95.38655,0.71408 -143.08034,0.97515 -23.0556,0.12621 -46.11301,-0.072 -69.16845,0.0675 -9.36322,0.0566 -18.73122,0.50018 -28.07514,1.10575 -1.1806,0.0765 -3.138,2.1742 -3.19532,3.40706 -0.56646,12.18395 -0.81299,24.38286 -1.13953,36.57782 -0.33991,12.69459 -0.8727,25.38813 -0.95708,38.08454 -0.15544,23.38858 0.0785,46.77971 -0.0737,70.16832 -0.21825,33.52803 -0.66763,67.05452 -0.95439,100.5822 -0.1017,11.88916 -0.14637,23.78177 0.0204,35.66947 0.16636,11.86379 0.69694,23.72222 0.91238,35.58581 0.0487,2.68362 0.78316,4.10956 3.65546,3.77582 0.16444,-0.0191 0.33306,-0.004 0.49968,-0.002 25.36095,0.33301 50.72234,0.63504 76.08266,1.00998 19.02861,0.28134 38.05493,0.81113 57.08409,0.92285 9.19263,0.054 18.39747,-0.457 27.58191,-0.97561 8.23491,-0.46494 16.44959,-1.28931 24.67292,-1.95838 2.83139,-0.23035 3.80444,-0.74029 3.77346,-4.55469 -0.18301,-22.53106 0.80448,-45.07302 0.54535,-67.6015 -0.15835,-13.76159 -1.8218,-27.50735 -2.86923,-41.25561 -0.15561,-2.04206 -0.18707,-4.31104 -1.12546,-6.00421 -0.69628,-1.25629 -2.76233,-2.46137 -4.2294,-2.47489 -17.99775,-0.16623 -35.99759,-0.10824 -53.99688,-0.10824 -20.99918,0 -41.99974,-0.12836 -62.99653,0.0956 -4.88595,0.0521 -6.63513,-1.18762 -7.90136,-6.36649 -2.6669,-10.90759 -5.53797,-21.71126 -4.65073,-32.98875 1.13307,-14.4023 7.27397,-26.22481 20.10112,-33.6098 3.25058,-1.87143 7.42621,-2.98723 11.18219,-3.00129 51.33061,-0.19197 102.66225,-0.16815 153.99346,-0.0848 7.19549,0.0117 14.39941,0.51055 21.57162,1.11441 0.78683,0.0663 1.98071,2.32377 1.98837,3.57105 0.12461,20.33177 -0.0173,40.66522 0.11048,60.99693 0.25897,41.19416 0.69683,82.38712 0.95556,123.58127 0.12805,20.38889 0.0951,40.77973 -0.0236,61.16873 -0.0341,5.86344 -0.56332,11.72824 -1.03064,17.57926 -0.0552,0.69091 -1.126,1.33758 -1.80017,1.9187 -0.19122,0.16485 -0.64502,0.02 -0.97824,0.026 -18.69452,0.33252 -37.38803,0.76022 -56.08392,0.96832 -14.05487,0.15643 -28.11399,-0.0798 -42.16931,0.0549 -26.02839,0.24955 -52.05483,0.82621 -78.08318,0.90641 -15.36015,0.0473 -30.72379,-0.54575 -46.08321,-0.95118 -8.19802,-0.2164 -16.39178,-0.61578 -24.58505,-0.98596 -14.22438,-0.64261 -28.45045,-1.25964 -42.669,-2.01559 -10.39616,-0.55271 -20.78342,-1.28217 -31.16932,-2.009 -1.54429,-0.10813 -3.04511,-0.8205 -4.59008,-0.93854 -9.70974,-0.7417 -9.712,-0.71222 -9.712,-10.2796 -1e-5,-122.49521 -1e-5,-244.99045 -1e-5,-367.48566 0,-10.05679 -0.12941,-20.11569 0.0345,-30.1698 0.18264,-11.19779 0.338,-22.41101 1.10789,-33.57572 0.31527,-4.57204 1.96926,-9.11558 3.44492,-13.52805 1.95552,-5.84728 6.56908,-7.98785 12.46634,-7.99948 164.18887,-0.3238 328.37784,-0.60745 492.56653,-1.01328 87.02551,-0.21511 174.05018,-0.75628 261.07568,-0.94542 74.7206,-0.1624 149.4422,0.0962 224.1627,-0.069 79.6925,-0.17621 159.3842,-0.74925 239.0767,-0.92981 72.5539,-0.16438 145.1089,0.0939 217.6628,-0.074 62.1934,-0.14395 124.3858,-0.62531 186.5785,-0.98093 0.9422,-0.005 1.8823,-0.31318 2.8235,-0.72985 0.8334,-0.25 1.6666,-0.25 2.75,-0.25 m -322.25,63 c 0.3334,1 0.6666,2 1,3.00002 1.1666,-0.59764 2.3334,-1.19526 3.5,-1.79292 -1.1666,-0.40237 -2.3334,-0.80474 -4.5,-1.2071 z"
     id="path1"
     style="fill:#ff2a2a;fill-opacity:1" /><path
     class="selected"
     fill="#000000"
     opacity="1"
     stroke="none"
     d="m 1686.5265,1045.7735 c -1.8475,-0.3332 -3.4448,-0.9567 -5.0426,-0.958 -58.663,-0.05 -117.3264,0.088 -175.9889,-0.079 -57.5255,-0.1638 -115.0498,-0.7848 -172.5754,-0.9232 -69.719,-0.1677 -139.4392,0.086 -209.1582,-0.081 -53.8591,-0.1291 -107.7169,-0.7779 -161.57604,-0.9198 -63.71943,-0.1678 -127.44001,0.091 -191.15946,-0.077 -60.19198,-0.1582 -120.38278,-0.7648 -180.57477,-0.9249 -62.88614,-0.1674 -125.77321,0.028 -188.65962,-0.083 -15.86147,-0.028 -31.72257,-0.5946 -47.58262,-0.9654 -7.70357,-0.1801 -9.61057,-2.7268 -10.97703,-12.771 -2.31548,-17.0203 -3.35633,-34.0783 -3.0896,-51.2623 0.0735,-4.7369 1.23165,-6.063 6.05466,-6.0611 288.98203,0.1179 577.96408,0.1056 866.94618,0.1056 97.9939,0 195.9879,0 293.9818,0 176.8795,0 353.7591,0.01 530.6387,-0.042 5.8617,0 11.7288,-0.5465 17.5825,-0.9858 3.7496,-0.2815 3.8609,-3.2885 3.9057,-6.0081 0.3768,-22.8597 0.6924,-45.7206 1.0245,-68.5812 0.3346,-23.0271 0.7069,-46.0538 0.9903,-69.0816 0.3738,-30.3595 0.6325,-60.7204 1.026,-91.0798 0.2466,-19.0285 0.7112,-38.05417 0.9597,-57.08267 0.1355,-10.38812 -0.061,-20.78058 0.078,-31.16858 0.04,-2.99475 -0.9422,-4.16058 -3.9646,-4.01337 -3.7148,0.18085 -7.4454,0.0795 -11.1686,0.0374 -28.5269,-0.32276 -57.0529,-0.79035 -85.5808,-0.95777 -28.3878,-0.16656 -56.7779,0.0845 -85.1657,-0.079 -18.8621,-0.10864 -37.7211,-0.68701 -56.5832,-0.90326 -3.6908,-0.0424 -7.4316,0.39228 -11.0572,1.08771 -1.0139,0.19434 -2.4347,2.11377 -2.4231,3.22888 0.1736,16.69593 0.5261,33.39038 0.9281,50.08295 0.049,2.03528 0.1614,4.31671 1.1002,6.00928 0.8425,1.51883 2.8153,3.30763 4.373,3.38963 11.5135,0.6058 23.0461,0.9721 34.5762,1.1175 33.1922,0.4182 66.3856,0.7455 99.5794,1.0086 15.7219,0.1246 31.4459,0.083 47.1681,-0.024 3.6972,-0.025 7.3957,-0.572 11.0837,-0.9703 2.9131,-0.3144 4.1754,0.6886 4.1316,3.8157 -0.1381,9.8308 0.076,19.6668 -0.083,29.4969 -0.2002,12.3633 -0.7012,24.7215 -0.9525,37.0843 -0.3915,19.2501 -0.6658,38.5025 -1.02,57.7534 -0.3101,16.8612 -0.5032,33.727 -1.0633,50.5803 -0.2738,8.2364 -0.9139,16.4974 -2.0392,24.6575 -0.9633,6.986 -7.7791,9.6761 -13.0865,9.6721 -84.4948,-0.063 -168.9895,-0.043 -253.4843,-0.046 -6.5533,-3e-4 -8.217,-1.7639 -8.3442,-8.2249 -0.2598,-13.196 -1.2345,-26.4096 -0.7816,-39.577 0.3318,-9.6483 2.3828,-19.2486 3.9405,-28.8258 0.1546,-0.949 2.2233,-2.2634 3.3921,-2.2519 4.6979,0.046 9.3866,0.7131 14.0872,0.8404 6.1617,0.167 12.3328,-0.039 18.4975,0.056 19.1948,0.2932 38.3876,0.7063 57.5827,0.9626 9.7215,0.1298 19.448,-0.098 29.1691,0.051 14.8625,0.2267 29.7238,0.5871 44.5827,0.9931 7.8648,0.2149 15.7276,0.5744 23.5824,1.0232 2.301,0.1313 3.0249,-0.3099 3.0548,-2.8688 0.1441,-12.3634 0.5287,-24.7251 0.9363,-37.0838 0.2098,-6.3656 0.6001,-12.7265 0.9918,-19.0844 0.3404,-5.5208 -1.6661,-7.6434 -8.0593,-7.9438 -6.2098,-0.2918 -12.4454,0.024 -18.6672,-0.08 -16.8616,-0.284 -33.7228,-0.6176 -50.5827,-0.9938 -12.529,-0.2795 -25.0559,-0.9196 -37.5836,-0.9162 -12.8612,0 -25.7275,0.4606 -38.5819,0.9647 -12.5632,0.4928 -25.1146,1.2891 -37.6699,1.975 -0.9436,0.052 -1.9994,0.054 -2.7941,0.4744 -3.1478,1.6642 -3.1067,-0.2011 -3.0978,-2.4974 0.049,-12.499 0.1442,-24.9999 -0.01,-37.4973 -0.172,-14.0205 -0.8435,-28.0381 -0.8353,-42.05679 0.01,-15.03675 0.6263,-30.07209 0.8517,-45.10993 0.3901,-26.02612 0.7775,-52.0531 0.9205,-78.08117 0.024,-4.2688 2.1321,-4.27936 5.2281,-4.27759 75.8286,0.042 151.6573,0.0329 227.4859,0.0329 8.4995,0 16.9997,-0.0808 25.4983,0.0151 25.8607,0.29163 51.7214,0.60919 77.5809,1.00012 16.6954,0.25245 33.39,0.59998 50.082,1.01776 4.7003,0.11762 9.4008,0.54285 14.076,1.05646 0.781,0.0858 2.0489,1.34534 2.0537,2.06958 0.1161,17.33149 0.1693,34.66443 0.044,51.99585 -0.04,5.53034 -0.7168,11.05298 -0.9333,16.58582 -0.4056,10.35846 -0.7094,20.72119 -1.0074,31.08343 -0.088,3.05445 0.022,6.11408 -0.019,9.17047 -0.3234,24.36059 -0.6716,48.72079 -0.9916,73.08139 -0.3462,26.3601 -0.8693,52.7198 -0.9587,79.0809 -0.1575,46.3872 0.061,92.7755 -0.089,139.1627 -0.073,22.528 -0.6968,45.054 -0.8538,67.5825 -0.018,2.6335 -1.1027,3.2308 -3.1012,3.848 -21.8334,0.25 -43.6666,0.25 -65.75,0 -1.3474,-0.4167 -2.4447,-0.7291 -3.5421,-0.7294 -121.6387,-0.022 -243.2774,-0.024 -364.916,0.021 -1.2641,4e-4 -2.5279,0.6253 -3.7919,0.9585 -0.8334,0 -1.6666,0 -2.75,0 z"
     id="path2"
     style="fill:#ff2a2a;fill-opacity:1" /><path
     class="selected"
     fill="#000000"
     opacity="1"
     stroke="none"
     d="m 1856.2765,39.77344 c 28.6642,0 56.829,0.11848 84.9922,-0.0432 17.6951,-0.10156 35.3928,-0.46029 53.0788,-1.03204 7.7618,-0.25093 12.9417,4.81152 12.9402,12.95436 -0.017,100.65769 0.034,201.31545 -0.098,301.97295 -0.01,7.89065 -1.1904,15.78573 -2.0286,23.65725 -0.062,0.58606 -1.7555,1.41269 -2.7,1.42563 -8.2217,0.11267 -16.4454,0.065 -24.6685,0.065 -8.723,0 -17.4485,0.12258 -26.1683,-0.0422 -6.0323,-0.11395 -12.1004,-0.31729 -18.0563,-1.16073 -1.6107,-0.22812 -4.085,-2.91355 -4.1077,-4.50025 -0.2815,-19.82758 -0.294,-39.66135 -0.1397,-59.49173 0.082,-10.5296 0.5941,-21.05661 0.9644,-31.58298 0.2882,-8.1961 0.7677,-16.38684 0.9536,-24.58471 0.1315,-5.7981 -3.7717,-9.62082 -9.5448,-9.62836 -18.665,-0.0243 -37.331,-0.13046 -55.9946,0.0335 -12.5294,0.11001 -25.0571,0.56891 -37.5819,0.98285 -5.5331,0.18286 -11.0909,0.37173 -16.5741,1.06167 -4.2338,0.53269 -8.6756,2.52762 -8.3612,8.79624 0.3919,7.81295 -0.022,15.66262 0.1202,23.49267 0.2372,13.02921 1.1802,26.06961 0.836,39.0791 -0.4215,15.93299 -1.8668,31.83872 -2.8529,47.75724 -0.072,1.16211 -0.4346,2.56872 0.061,3.46023 2.9064,5.23239 -1.5264,5.83036 -4.4942,7.14459 -1.1155,0.49405 -2.6035,0.17774 -3.9218,0.17823 -19.1649,0.007 -38.3309,-0.0992 -57.4941,0.0781 -4.7572,0.044 -6.2893,-1.70624 -6.2384,-6.37869 0.1944,-17.88681 0.017,-35.77719 0.09,-53.66583 0.3079,-75.6886 0.7411,-151.37684 0.9017,-227.06571 0.026,-12.08359 -1.181,-24.16675 -1.649,-36.25665 -0.1091,-2.81842 0.3179,-5.68852 0.7703,-8.49092 0.7959,-4.92804 5.2781,-8.21131 10.9764,-8.21225 38.4965,-0.006 76.9931,-0.003 115.9897,-0.003 m -9.5,74 c -9.5179,-0.33335 -19.0698,-0.28484 -28.5431,-1.12261 -7.3839,-0.65298 -12.2952,3.69345 -12.0043,11.87738 0.5041,14.17336 0.7141,28.35716 1.0469,42.53658 0,0.16638 -0.072,0.402 0.011,0.48901 1.0377,1.08569 2.0324,2.99552 3.1631,3.08316 7.6663,0.59454 15.3634,1.08661 23.0489,1.06384 9.3524,-0.0277 18.7014,-0.80593 28.0549,-0.8825 18.5352,-0.1518 37.0724,-0.0449 55.6088,-0.0449 8.6017,0 9.9008,-0.93262 10.0475,-9.41863 0.2425,-14.03715 0.1716,-28.0835 -0.087,-42.12007 -0.028,-1.50719 -1.9671,-3.97049 -3.3855,-4.27263 -4.0766,-0.86838 -8.3396,-1.1239 -12.5315,-1.14342 -21.1429,-0.0985 -42.2863,-0.0453 -64.4296,-0.0453 z"
     id="path3"
     style="fill:#ff2a2a;fill-opacity:1" /><path
     class="selected"
     fill="#000000"
     opacity="1"
     stroke="none"
     d="m 1513.5265,306.02344 c 15.4161,-0.25 30.5823,-0.25 45.7484,-0.25 6.7236,0 13.45,0.11822 20.1697,-0.0433 4.2007,-0.10092 8.456,-0.28131 12.5673,-1.05844 3.691,-0.69775 6.2125,-3.24493 6.2353,-7.28866 0.077,-13.66578 -0.05,-27.33301 0.086,-40.99784 0.034,-3.37616 -1.6663,-3.69861 -4.3244,-3.63885 -15.708,0.35321 -31.4175,0.65027 -47.1277,0.87912 -1.5094,0.022 -3.03,-0.82666 -4.541,-0.81165 -28.0281,0.27814 -56.0565,0.57123 -84.0829,0.98435 -12.697,0.18719 -25.3894,0.66427 -38.085,0.9642 -5.0774,0.11996 -10.2863,0.85281 -15.2055,-0.008 -6.8492,-1.19815 -9.6613,-5.48929 -9.6791,-12.56339 -0.036,-14.49939 -0.011,-28.99893 -0.011,-43.49841 0,-50.83154 -10e-4,-101.66309 0,-152.49463 2e-4,-5.87955 0.5586,-6.34895 6.538,-6.43765 20.1952,-0.29961 40.3888,-0.68566 60.5841,-0.97042 7.3703,-0.10392 8.8648,1.51214 8.8735,9.15584 0.013,11.16626 0,22.33255 0,33.49883 0,26.99905 0,53.99809 0,80.99714 0,6.53324 2.6748,9.30115 9.3019,9.31385 23.4991,0.0451 46.999,0.12204 70.4973,-0.0275 11.3631,-0.0723 22.723,-0.63229 34.0849,-0.95096 6.9009,-0.19354 10.1126,-3.51101 10.1128,-10.52546 0,-39.16529 0.059,-78.33078 -0.089,-117.49552 -0.015,-3.93825 1.5249,-4.96376 4.9849,-5.00856 21.8618,-0.28293 43.7223,-0.664 65.584,-0.96017 6.3963,-0.0867 6.8304,0.70497 5.5537,7.02141 -2.2924,11.34123 -3.2025,22.75694 -1.0446,34.2516 0.091,0.48295 0,0.99797 0.013,1.49774 0.3319,16.52804 0.7084,33.05531 0.9883,49.58424 0.3756,22.19376 0.5508,44.39174 1.0701,66.58184 0.2209,9.43533 1.1393,18.85315 1.6289,28.28466 0.077,1.47507 -0.6732,2.98413 -0.6541,4.47245 0.2833,21.86181 0.6371,43.72268 0.9597,65.58398 0.043,2.88977 -0.032,5.78131 0.012,8.67108 0.3222,21.52799 0.6867,43.05536 0.9785,64.58377 0.091,6.69956 -1.771,8.37024 -8.5808,8.4675 -20.5285,0.29315 -41.0569,0.60514 -61.5835,1.00321 -12.1968,0.23651 -24.3894,0.67352 -36.585,0.97592 -14.5274,0.36029 -29.0562,0.6626 -43.584,1.0094 -13.3618,0.31894 -26.722,0.71158 -40.0847,0.98535 -18.5269,0.37955 -37.0569,0.62277 -55.583,1.04047 -6.8657,0.15478 -13.7209,0.82 -20.5863,0.92849 -10.3481,0.16352 -16.0649,-5.21332 -16.3569,-15.53881 -0.4815,-17.02381 -0.7416,-34.05427 -1.0226,-51.08314 -0.1082,-6.55392 1.7167,-8.32931 8.1963,-8.33267 15.9994,-0.008 31.9989,-0.003 47.9983,-0.003 20.3326,0 40.6653,0.0112 60.9979,-0.0216 1.5968,-0.003 3.1932,-0.31171 5.0398,-0.72839 z"
     id="path4"
     style="fill:#ff2a2a;fill-opacity:1" /><path
     class="selected"
     fill="#000000"
     opacity="1"
     stroke="none"
     d="m 1010.2764,717.7734 c 0,21.8888 0.1286,43.2787 -0.039,64.6661 -0.1429,18.1953 -0.7679,36.3867 -0.9226,54.582 -0.1678,19.7209 0.013,39.4445 -0.083,59.1663 -0.018,3.6965 -0.5265,7.4038 -1.0501,11.0715 -0.085,0.5971 -1.4313,1.4482 -2.1971,1.4509 -21.83134,0.079 -43.66404,0.1763 -65.49375,-0.028 -4.5857,-0.043 -6.03784,-4.2182 -6.09821,-7.8323 -0.26721,-15.9942 -0.24487,-31.9969 -0.0769,-47.9938 0.14734,-14.0294 0.46612,-28.0618 1.026,-42.0803 0.30243,-7.5711 1.13849,-15.1302 1.98303,-22.6668 0.52204,-4.6579 -4.49597,-9.182 -10.93915,-9.3138 -5.16412,-0.1056 -10.33203,-0.021 -15.49829,-0.021 -29.33099,0 -58.66204,-7e-4 -87.99304,7e-4 -6.02481,3e-4 -6.61517,0.5604 -6.61572,6.3455 -0.003,35.4972 -0.0335,70.9944 0.0423,106.4914 0.009,4.029 0.56616,8.0624 0.97491,12.083 0.29651,2.9165 -0.69748,4.143 -3.81973,4.1288 -20.83127,-0.095 -41.66324,-0.02 -62.49469,-0.093 -2.19623,-0.01 -4.49948,-0.3361 -6.52756,-1.1081 -0.73291,-0.279 -1.12375,-2.2958 -1.12872,-3.5217 -0.0707,-17.3888 0.024,-34.7784 -0.0612,-52.1671 -0.29978,-61.1906 -0.65552,-122.3809 -0.98334,-183.57125 -0.0271,-5.05664 0.0512,-10.1142 -0.0129,-15.17017 -0.3128,-24.69354 -0.58261,-49.38818 -1.05722,-74.07873 -0.089,-4.63074 1.39377,-6.44806 6.19284,-6.41376 23.16364,0.16577 46.33002,-0.0543 69.49369,0.10846 26.69418,0.18756 53.3858,0.72021 80.07989,0.93658 18.88776,0.15308 37.77887,-0.0975 56.66638,0.0699 15.02918,0.13324 30.05463,0.65088 45.08283,0.94525 4.72165,0.0925 9.45055,0.12836 14.16855,-0.0327 2.4182,-0.0825 2.5525,0.67791 2.1656,2.85156 -1.1134,6.25464 -2.3144,12.54535 -2.6882,18.86871 -0.6704,11.34113 -0.9309,22.71454 -1.0537,34.07782 -0.1663,15.38751 0.088,30.77954 -0.08,46.16699 -0.1512,13.86255 -0.6283,27.72154 -0.9616,42.08214 m -130.49998,-10 c 17.15717,0 34.31958,-0.2257 51.46777,0.1666 4.03083,0.092 5.08258,-1.9463 5.9032,-4.6423 0.73169,-2.40411 1.11084,-5.02105 1.07514,-7.53594 -0.22736,-16.02118 -0.56092,-32.04169 -1.06977,-48.05579 -0.032,-1.00634 -1.73596,-2.6405 -2.84228,-2.81067 -4.14606,-0.63781 -8.36927,-1.1026 -12.55951,-1.07232 -33.84375,0.24487 -67.68652,0.61712 -101.52963,0.95001 -0.33313,0.003 -0.79483,-0.14179 -0.97812,0.0239 -1.02613,0.92785 -2.83176,1.92193 -2.84119,2.90808 -0.17203,17.9884 -0.21036,35.97998 0.0412,53.96655 0.0193,1.38418 2.22043,3.60788 3.73108,3.93168 3.91769,0.8399 8.01098,1.028 12.0433,1.1363 15.51767,0.4168 31.03894,0.7005 47.55884,1.0338 z"
     id="path5"
     style="fill:#ff2a2a;fill-opacity:1" /><path
     class="selected"
     fill="#000000"
     opacity="1"
     stroke="none"
     d="m 1166.0264,88.02344 c 12.7417,18.07495 25.2715,35.8733 37.7129,53.7333 9.9017,14.21431 19.9877,28.3129 29.4596,42.81064 10.6704,16.33222 20.7275,33.0647 31.1687,49.54874 0.2776,0.43826 2.6965,0.25122 2.7817,-0.0378 0.5768,-1.95673 1.0833,-4.01932 1.085,-6.0481 0.052,-59.33121 0.042,-118.66241 0.042,-177.99364 0,-6.25813 0,-6.26181 6.6152,-6.26248 19.1659,-0.002 38.335,0.18784 57.4957,-0.12953 4.9644,-0.0822 5.9567,1.79474 5.9432,6.12033 -0.1,31.99855 -0.054,63.99756 -0.054,95.99642 0,74.16401 0,148.32804 0,222.49208 0,11.7962 -1.6054,13.57809 -13.6147,13.47168 -14.6965,-0.13028 -29.3884,-0.78229 -44.085,-0.91019 -18.4114,-0.16028 -13.4271,1.7745 -24.0666,-13.52292 -10.7111,-15.40045 -20.3858,-31.52121 -30.5334,-47.31427 -15.2248,-23.69476 -30.4991,-47.35782 -45.6896,-71.07458 -11.7203,-18.29899 -23.3303,-36.66861 -35.0368,-54.97648 -0.9492,-1.48449 -2.2665,-2.73358 -3.4127,-4.09207 -0.5204,1.91028 -1.4801,3.81763 -1.4927,5.73123 -0.1161,17.66529 -0.195,35.33277 -0.037,52.99741 0.2033,22.69562 0.7306,45.38828 0.9373,68.08389 0.157,17.22181 0.022,34.44617 0.048,51.66938 0,1.44711 0.059,2.93838 0.4018,4.33239 0.9747,3.9614 -0.4797,6.10169 -4.5111,6.1102 -16.3327,0.0346 -32.6655,0.0143 -48.9983,0.0143 -4.7237,0 -9.4589,-0.20572 -14.1678,0.0577 -4.7255,0.26438 -6.205,-2.46652 -6.7216,-6.37225 -0.13,-0.98279 -0.02,-1.99737 -0.02,-2.99734 0,-105.16294 0,-210.32584 0,-315.48876 0,-7.88148 2.258,-10.19935 9.936,-10.19935 17.8327,0 35.6677,0.15449 53.4965,-0.1074 4.5224,-0.0664 7.7179,1.76192 9.898,5.05811 8.5428,12.91531 16.8038,26.01691 25.4195,39.29929 z"
     id="path6"
     style="fill:#ff2a2a;fill-opacity:1" /><path
     class="selected"
     fill="#000000"
     opacity="1"
     stroke="none"
     d="m 881.27642,378.77344 c -19.33228,0 -38.16882,-0.24335 -56.99542,0.0849 -12.7309,0.22193 -25.45917,1.08378 -38.16742,1.96522 -10.93524,0.75851 -21.84103,1.94409 -32.75867,2.95339 -3.36377,0.31095 -6.7189,0.87165 -10.08658,0.95047 -5.89782,0.1381 -9.90344,-3.35827 -9.93298,-9.18222 -0.13446,-26.49783 -0.1882,-52.99762 -0.0203,-79.49508 0.14911,-23.52844 0.75921,-47.05393 0.92465,-70.58237 0.16681,-23.72137 -0.0929,-47.44574 0.0749,-71.1671 0.15344,-21.69534 0.68201,-43.38775 0.9393,-65.08272 0.12915,-10.88838 0.38644,-21.79605 -0.10581,-32.66366 -0.32653,-7.20902 2.72434,-11.74843 12.07407,-11.76847 19.16553,-0.0411 38.33539,0.23723 57.49561,-0.0847 18.05099,-0.30325 36.08801,-1.53463 54.13836,-1.74879 15.19953,-0.18031 30.4101,0.78793 45.6145,0.75185 19.02826,-0.0452 38.05433,-0.67557 57.08307,-0.90282 12.38813,-0.14797 24.7804,-0.12215 37.16876,0.0129 5.97014,0.0651 7.55394,1.92151 7.55394,7.86942 0,19.49893 0,38.99786 -9e-4,58.49679 -10e-4,8.15044 -0.4367,8.59304 -8.36969,8.59304 -16.55627,0 -33.11328,-0.10567 -49.66857,0.0222 -33.52735,0.25897 -67.05432,0.59279 -100.58002,1.01062 -9.53073,0.11877 -19.05454,0.75821 -28.58551,0.90954 -4.15329,0.066 -4.64319,2.77904 -4.74857,5.72707 -0.17261,4.8269 0.0574,9.66719 -0.0684,14.49698 -0.26144,10.02992 -0.73141,20.05479 -0.94549,30.08539 -0.12665,5.93512 2.83389,8.74139 8.85351,8.74295 39.33118,0.0102 78.6626,0.0619 117.99317,-0.0913 3.53399,-0.0137 4.34283,0.82263 4.21484,4.27228 -0.29645,7.98855 -0.21765,15.99795 -0.0649,23.99463 0.2171,11.36349 0.56567,22.72592 1.00781,34.083 0.16406,4.21405 -1.51044,5.94016 -5.75744,5.78672 -12.35718,-0.44641 -24.72242,-0.66349 -37.08179,-1.05579 -7.86414,-0.24957 -15.72107,-0.72955 -23.58551,-0.9667 -13.19257,-0.3978 -26.38727,-0.85285 -39.58353,-0.94944 -7.02539,-0.0515 -14.05707,0.57605 -21.08374,0.93885 -5.66147,0.29223 -5.53369,4.91272 -5.83868,8.60644 -0.42371,5.13141 -0.002,10.32654 -0.12827,15.48984 -0.26123,10.69641 -0.74588,21.388 -0.94278,32.08517 -0.13135,7.13416 1.67664,8.80966 8.70179,8.8111 9.16616,0.002 18.33941,0.23047 27.49682,-0.0525 14.40518,-0.4451 28.79837,-1.26904 43.20059,-1.8302 1.50482,-0.0586 3.03943,0.85654 4.5553,0.84091 26.6944,-0.27496 53.38879,-0.57504 80.08124,-0.99179 6.86511,-0.10718 13.72113,-0.7576 20.58661,-0.8967 2.32934,-0.0472 4.78881,0.38925 6.98971,1.1677 4.8019,1.69839 6.1,6.03225 4.3631,13.22824 -0.405,1.67785 -0.9578,3.38629 -0.9666,5.08316 -0.077,14.66543 -0.044,29.33148 -0.044,43.99734 0,0.66663 -0.065,1.34073 0.012,1.99854 0.2727,2.35241 0.5931,4.69934 0.8956,7.04834 -2.7769,0.1358 -5.5538,0.38662 -8.33082,0.38958 -27.49848,0.0294 -54.9975,0.11353 -82.49524,-0.0279 -11.52844,-0.0593 -23.05426,-0.62106 -35.0813,-0.95437 z"
     id="path7"
     style="fill:#ff2a2a;fill-opacity:1" /><path
     class="selected"
     fill="#000000"
     opacity="1"
     stroke="none"
     d="m 1471.2765,907.7734 c -4.5282,-0.3333 -8.5544,-0.9217 -12.5851,-0.9542 -14.4978,-0.1167 -28.9978,0.038 -43.4955,-0.092 -5.0307,-0.045 -10.0693,-0.5095 -15.0705,-1.0794 -0.7146,-0.082 -1.7609,-1.842 -1.7699,-2.8334 -0.1185,-13.1644 -0.079,-26.3303 -0.079,-39.4959 0,-17.7223 -0.1266,-35.4458 0.041,-53.1666 0.1308,-13.8626 0.7595,-27.7202 0.9222,-41.5829 0.1671,-14.2207 -0.069,-28.4458 0.06,-42.6673 0.2574,-28.36014 0.591,-56.71988 1,-85.07828 0.2048,-14.19586 0.8225,-28.38727 0.9084,-42.58283 0.049,-8.08276 -0.5118,-16.17456 -0.9731,-24.25231 -0.1844,-3.22748 0.931,-4.31122 4.2081,-4.27796 14.3307,0.14575 28.665,-0.0661 42.9952,0.10181 12.3631,0.1449 24.7207,0.83954 37.0833,0.92486 59.8563,0.41315 119.7131,0.75641 179.5703,0.95307 5.9916,0.0197 7.5634,1.17389 7.2377,7.36358 -0.5273,10.01752 -0.7234,20.05262 -1.0513,30.08051 -0.3387,10.36084 -0.7808,20.72022 -0.9423,31.08392 -0.06,3.83698 -0.9714,5.62976 -5.3803,5.64752 -45.3587,0.1825 -90.7165,0.57972 -136.0745,0.90125 -6.3896,0.0453 -12.7828,-0.11578 -19.1691,0.0351 -9.3637,0.22119 -18.7308,0.51715 -28.0743,1.12152 -1.1881,0.0768 -3.2,2.18829 -3.2161,3.3789 -0.2157,15.99567 -0.2376,31.99622 -0.082,47.99329 0.042,4.29135 2.9879,5.52825 7.0106,5.52005 36.1634,-0.073 72.3278,0.093 108.4903,-0.1063 15.4078,-0.085 17.0018,1.0118 16.4039,16.2591 -0.5056,12.8957 -1.2675,25.7819 -1.9919,38.668 -0.1615,2.8714 -0.6102,5.7289 -0.9827,8.5854 -0.4935,3.7844 -4.6364,7.5169 -8.6629,7.5265 -21.8313,0.052 -43.6638,0.1394 -65.494,-0.019 -12.6959,-0.092 -25.3905,-0.569 -38.0818,-0.9875 -4.0347,-0.133 -8.0523,-0.7897 -12.0871,-0.9237 -3.7711,-0.1252 -5.7298,1.4059 -5.7578,5.7503 -0.111,17.1952 -0.6076,34.3876 -0.8914,51.5822 -0.1023,6.1925 0.428,6.6223 6.8234,6.6224 54.662,4e-4 109.324,-0.028 163.9859,0.044 5.5285,0.01 11.0691,0.4857 16.5798,1.0046 3.6715,0.3457 4.6495,2.9351 4.625,6.3264 -0.082,11.3889 -0.031,22.7788 -0.031,34.1683 0,0.5 -0.018,1.0007 0,1.4998 0.3297,8.1947 0.6152,16.3917 1.0232,24.5825 0.1479,2.9703 -0.519,4.4704 -4.0309,4.4463 -21.0543,-0.1445 -42.1112,0.055 -63.1652,-0.1121 -16.5859,-0.1319 -33.1678,-0.697 -49.7535,-0.9433 -26.5247,-0.3939 -53.0507,-0.6829 -80.0762,-1.0162 z"
     id="path8"
     style="fill:#ff2a2a;fill-opacity:1" /><path
     class="selected"
     fill="#000000"
     opacity="1"
     stroke="none"
     d="m 1088.5264,570.52344 c 14.4448,0.58331 28.6792,0.39953 42.8168,1.48095 6.4965,0.49689 13.7328,-0.47595 19.2172,5.422 14.0559,15.11548 28.4663,29.90106 42.6948,44.85663 2.2337,2.34766 4.1357,5.01538 6.4108,7.31787 2.7942,2.8277 8.0386,3.26758 11.3215,-0.83984 12.5725,-15.73005 25.6761,-31.03437 38.3676,-46.67115 3.8585,-4.7539 6.584,-10.57757 13.6021,-11.50811 1.5624,-0.20716 3.1081,-0.76978 4.6624,-0.7732 23.1658,-0.0508 46.3324,0.0532 69.4972,-0.10803 4.7565,-0.0331 6.2373,1.71045 6.2327,6.37787 -0.097,97.49682 -0.037,194.99367 -0.1172,292.49047 -0.01,12.5285 -0.6462,25.0559 -0.945,37.5849 -0.1313,5.5077 -4.9883,5.1003 -7.9621,5.4246 -10.6693,1.164 -21.4306,1.4592 -32.1476,2.2182 -7.732,0.5476 -15.4609,1.1964 -23.1685,2.0139 -5.8648,0.622 -12.9755,-6.397 -12.8277,-12.7033 0.3123,-13.3256 -0.031,-26.6651 0.126,-39.9961 0.2078,-17.6962 0.6039,-35.3904 0.9796,-53.0842 0.2802,-13.196 0.8468,-26.3885 0.9462,-39.5851 0.161,-21.3886 0.043,-42.7793 0.043,-64.1691 0,-15.39001 0,-30.78009 0,-46.1701 0,-0.83331 0.1611,-1.70648 -0.033,-2.49158 -0.4058,-1.63721 -0.9994,-3.22784 -1.5158,-4.83758 -1.2713,0.9544 -2.71,1.75018 -3.788,2.88769 -10.5314,11.11432 -21.1737,22.13129 -31.4274,33.49805 -6.2373,6.91443 -11.8863,14.36342 -17.725,21.63222 -2.9867,3.7184 -4.2678,3.7719 -8.3703,-0.3959 -18.2874,-18.57903 -36.5416,-37.19061 -54.809,-55.78924 -0.7007,-0.71344 -1.3079,-1.63831 -2.1591,-2.0401 -0.5284,-0.24939 -2.0306,0.20636 -2.0798,0.50989 -0.4857,3.00384 -1.0316,6.04065 -1.0473,9.0708 -0.092,17.66559 -0.045,35.33197 -0.045,52.99805 0,4.7237 0.041,9.4478 -0.01,14.171 -0.3206,31.6944 -0.7075,63.3882 -0.9724,95.083 -0.1231,14.7223 0.1011,29.4479 -0.063,44.1695 -0.112,10.0307 -0.2854,20.0834 -1.0644,30.0769 -0.6285,8.0596 -5.0783,13.8039 -14.175,13.2832 -11.296,-0.6468 -22.6587,-0.045 -33.9895,-0.1995 -6.0318,-0.082 -12.0713,-0.4668 -18.0817,-1.0018 -5.3984,-0.4804 -8.6429,-4.4336 -8.6441,-10.032 -0.01,-29.3324 -0.1182,-58.6654 0.041,-87.997 0.093,-17.1959 0.6325,-34.3894 0.9478,-51.5845 0.059,-3.2226 -0.023,-6.4477 0.013,-9.671 0.3249,-28.5278 0.7052,-57.05501 0.9751,-85.58327 0.1187,-12.55566 -0.1059,-25.11492 0.051,-37.66973 0.2067,-16.52967 0.5965,-33.05744 0.9865,-49.58417 0.1765,-7.47528 1.6814,-8.87396 9.2002,-8.80914 2.5952,0.0223 5.1881,0.3103 8.0321,0.72705 z"
     id="path9"
     style="fill:#ff2a2a;fill-opacity:1" /></svg>
